<?xml version="1.0" encoding="utf-8"?>
<!-- Generator: Adobe Illustrator 27.5.0, SVG Export Plug-In . SVG Version: 6.00 Build 0)  -->
<svg version="1.1" xmlns="http://www.w3.org/2000/svg" xmlns:xlink="http://www.w3.org/1999/xlink" x="0px" y="0px"
	 viewBox="0 0 500 500" style="enable-background:new 0 0 500 500;" xml:space="preserve">
<g id="Background_Simple">
	<g>
		<path style="fill:#C6FF00;" d="M329.22,43.771c0,0-73.45-21.628-145.978,22.117c-72.528,43.745-109.517,125.324-141.25,190.776
			c-31.733,65.452-14.139,129.577,40.828,156.509c54.968,26.932,92.766-18.609,170.165-24.54
			c77.4-5.931,98.142,3.716,162.634-41.601s76.757-145.459,26.588-216.645S329.22,43.771,329.22,43.771z"/>
		<path style="opacity:0.7;fill:#FFFFFF;" d="M329.22,43.771c0,0-73.45-21.628-145.978,22.117
			c-72.528,43.745-109.517,125.324-141.25,190.776c-31.733,65.452-14.139,129.577,40.828,156.509
			c54.968,26.932,92.766-18.609,170.165-24.54c77.4-5.931,98.142,3.716,162.634-41.601s76.757-145.459,26.588-216.645
			S329.22,43.771,329.22,43.771z"/>
	</g>
</g>
<g id="Clouds">
	<g>
		<g>
			<path style="fill:none;stroke:#263238;stroke-miterlimit:10;" d="M133.379,79.614c-1.992,2.162-3.442,4.832-4.134,7.795
				c-1.883-2.529-4.89-4.169-8.286-4.169c-1.845,0-3.575,0.489-5.075,1.337c-0.924-10.298-9.573-18.371-20.111-18.371
				c-9.695,0-17.791,6.833-19.745,15.945c-2.372-2.334-5.623-3.777-9.213-3.777c-3.333,0-6.375,1.241-8.692,3.285"/>
			<path style="fill:none;stroke:#263238;stroke-miterlimit:10;" d="M188.404,58.32c-1.349-0.211-2.731-0.32-4.139-0.32
				c-12.779,0-23.451,9.006-26.026,21.017c-3.126-3.076-7.411-4.979-12.144-4.979c-3.265,0-6.316,0.904-8.92,2.476"/>
			<path style="fill:none;stroke:#263238;stroke-miterlimit:10;" d="M203.369,66.086c-1.873-1.931-4.036-3.579-6.419-4.874"/>
			<path style="fill:none;stroke:#263238;stroke-miterlimit:10;" d="M193.779,92h49.202c-1.52-2.497-4.258-4.17-7.395-4.17
				c-1.979,0-3.796,0.671-5.254,1.787c-1.852-5.331-6.906-9.165-12.868-9.165c-2.433,0-4.712,0.645-6.689,1.761
				c-0.446-4.971-2.258-9.548-5.057-13.354"/>
			<path style="fill:none;stroke:#263238;stroke-miterlimit:10;" d="M56.065,83.954c-1.506,2.138-2.39,4.745-2.39,7.559
				c0,0.165,0.018,0.324,0.024,0.487h75.108h11.511h43.776"/>
		</g>
		<g>
			<path style="fill:none;stroke:#263238;stroke-miterlimit:10;" d="M230.664,100.763c-2.067-1.764-4.749-2.829-7.68-2.829
				c-5.683,0-10.43,4.006-11.575,9.347c-1.39-1.368-3.296-2.214-5.401-2.214c-3.649,0-6.698,2.54-7.494,5.947
				c-0.837-1.125-2.175-1.854-3.685-1.854c-0.821,0-1.59,0.217-2.257,0.594c-0.411-4.58-4.258-8.17-8.945-8.17
				c-4.312,0-7.913,3.039-8.781,7.091c-1.055-1.038-2.501-1.68-4.098-1.68c-3.228,0-5.844,2.617-5.844,5.844
				c0,0.073,0.008,0.144,0.011,0.216h33.404h5.12h45.659c-0.676-1.11-1.894-1.854-3.289-1.854c-0.88,0-1.689,0.298-2.337,0.795
				c-0.824-2.371-3.072-4.076-5.723-4.076c-1.082,0-2.095,0.287-2.975,0.784c-0.081-0.9-0.262-1.772-0.533-2.602"/>
		</g>
	</g>
	<g>
		<g>
			<path style="fill:none;stroke:#263238;stroke-miterlimit:10;" d="M384.687,253.008c-1.489,1.616-2.572,3.612-3.09,5.825
				c-1.407-1.89-3.655-3.116-6.193-3.116c-1.379,0-2.672,0.365-3.793,0.999c-0.691-7.697-7.155-13.73-15.031-13.73
				c-7.246,0-13.297,5.107-14.757,11.916c-1.773-1.744-4.202-2.823-6.885-2.823c-2.491,0-4.765,0.927-6.496,2.455"/>
			<path style="fill:none;stroke:#263238;stroke-miterlimit:10;" d="M425.811,237.093c-1.008-0.158-2.041-0.239-3.094-0.239
				c-9.551,0-17.527,6.731-19.451,15.707c-2.336-2.299-5.539-3.721-9.076-3.721c-2.44,0-4.721,0.676-6.667,1.851"/>
			<path style="fill:none;stroke:#263238;stroke-miterlimit:10;" d="M436.995,242.897c-1.4-1.443-3.017-2.675-4.797-3.642"/>
			<path style="fill:none;stroke:#263238;stroke-miterlimit:10;" d="M429.828,262.264h36.772c-1.136-1.866-3.183-3.116-5.527-3.116
				c-1.479,0-2.837,0.501-3.927,1.336c-1.384-3.984-5.161-6.849-9.617-6.849c-1.818,0-3.522,0.482-4.999,1.316
				c-0.333-3.715-1.687-7.136-3.779-9.98"/>
			<path style="fill:none;stroke:#263238;stroke-miterlimit:10;" d="M326.905,256.251c-1.125,1.598-1.786,3.546-1.786,5.649
				c0,0.123,0.014,0.242,0.018,0.364h56.133h8.603h32.717"/>
		</g>
		<g>
			<path style="fill:none;stroke:#263238;stroke-miterlimit:10;" d="M457.395,268.813c-1.545-1.319-3.549-2.115-5.74-2.115
				c-4.248,0-7.795,2.994-8.651,6.986c-1.039-1.023-2.463-1.655-4.036-1.655c-2.727,0-5.006,1.899-5.601,4.445
				c-0.626-0.841-1.625-1.386-2.754-1.386c-0.613,0-1.188,0.163-1.687,0.444c-0.307-3.423-3.182-6.106-6.685-6.106
				c-3.222,0-5.914,2.271-6.563,5.3c-0.788-0.776-1.869-1.255-3.062-1.255c-2.412,0-4.368,1.956-4.368,4.368
				c0,0.055,0.006,0.108,0.008,0.162h24.965h3.826h34.124c-0.505-0.83-1.416-1.386-2.458-1.386c-0.658,0-1.262,0.223-1.747,0.594
				c-0.615-1.772-2.296-3.046-4.277-3.046c-0.809,0-1.566,0.214-2.223,0.586c-0.06-0.673-0.196-1.324-0.398-1.945"/>
		</g>
	</g>
</g>
<g id="Binder">
	<g>
		
			<rect x="97.81" y="156.546" style="fill:#263238;stroke:#263238;stroke-linecap:round;stroke-linejoin:round;stroke-miterlimit:10;" width="136.483" height="201.518"/>
		
			<rect x="106.59" y="166.316" style="fill:#FFFFFF;stroke:#263238;stroke-linecap:round;stroke-linejoin:round;stroke-miterlimit:10;" width="118.924" height="182.205"/>
		<g>
			<path style="fill:#7D7D7D;stroke:#263238;stroke-linecap:round;stroke-linejoin:round;stroke-miterlimit:10;" d="
				M196.105,171.066h-60.108v-14.112c0-3.664,2.97-6.634,6.634-6.634h46.841c3.664,0,6.634,2.97,6.634,6.634V171.066z"/>
			<path style="fill:#7D7D7D;stroke:#263238;stroke-linecap:round;stroke-linejoin:round;stroke-miterlimit:10;" d="
				M170.073,141.839h-8.044c-3.934,0-7.122,3.189-7.122,7.122v1.298h22.288v-1.298C177.196,145.027,174.007,141.839,170.073,141.839
				z"/>
		</g>
		
			<circle style="fill:#263238;stroke:#263238;stroke-linecap:round;stroke-linejoin:round;stroke-miterlimit:10;" cx="196.089" cy="195.174" r="19.239"/>
		<polygon style="fill:#C6FF00;stroke:#263238;stroke-linecap:round;stroke-linejoin:round;stroke-miterlimit:10;" points="
			209.386,190.365 201.182,190.365 201.182,182.16 191.562,182.16 191.562,190.365 183.357,190.365 183.357,199.984 
			191.562,199.984 191.562,208.189 201.182,208.189 201.182,199.984 209.386,199.984 		"/>
		
			<line style="fill:none;stroke:#263238;stroke-linecap:round;stroke-linejoin:round;stroke-miterlimit:10;" x1="116.87" y1="194.608" x2="163.27" y2="194.608"/>
		
			<line style="fill:none;stroke:#263238;stroke-linecap:round;stroke-linejoin:round;stroke-miterlimit:10;" x1="116.87" y1="204.228" x2="163.27" y2="204.228"/>
		
			<line style="fill:none;stroke:#263238;stroke-linecap:round;stroke-linejoin:round;stroke-miterlimit:10;" x1="116.87" y1="235.916" x2="214.762" y2="235.916"/>
		<g>
			
				<rect x="117.435" y="244.969" style="fill:none;stroke:#263238;stroke-linecap:round;stroke-linejoin:round;stroke-miterlimit:10;" width="11.317" height="11.883"/>
			
				<rect x="170.06" y="244.969" style="fill:none;stroke:#263238;stroke-linecap:round;stroke-linejoin:round;stroke-miterlimit:10;" width="11.317" height="11.883"/>
			
				<line style="fill:none;stroke:#263238;stroke-linecap:round;stroke-linejoin:round;stroke-miterlimit:10;" x1="133.279" y1="256.852" x2="161.006" y2="256.852"/>
			
				<line style="fill:none;stroke:#263238;stroke-linecap:round;stroke-linejoin:round;stroke-miterlimit:10;" x1="185.904" y1="256.852" x2="213.63" y2="256.852"/>
		</g>
		<g>
			
				<rect x="117.435" y="268.169" style="fill:none;stroke:#263238;stroke-linecap:round;stroke-linejoin:round;stroke-miterlimit:10;" width="11.317" height="11.883"/>
			
				<rect x="170.06" y="268.169" style="fill:none;stroke:#263238;stroke-linecap:round;stroke-linejoin:round;stroke-miterlimit:10;" width="11.317" height="11.883"/>
			
				<line style="fill:none;stroke:#263238;stroke-linecap:round;stroke-linejoin:round;stroke-miterlimit:10;" x1="133.279" y1="280.052" x2="161.006" y2="280.052"/>
			
				<line style="fill:none;stroke:#263238;stroke-linecap:round;stroke-linejoin:round;stroke-miterlimit:10;" x1="185.904" y1="280.052" x2="213.63" y2="280.052"/>
		</g>
		<g>
			
				<rect x="117.435" y="291.369" style="fill:none;stroke:#263238;stroke-linecap:round;stroke-linejoin:round;stroke-miterlimit:10;" width="11.317" height="11.883"/>
			
				<rect x="170.06" y="291.369" style="fill:none;stroke:#263238;stroke-linecap:round;stroke-linejoin:round;stroke-miterlimit:10;" width="11.317" height="11.883"/>
			
				<line style="fill:none;stroke:#263238;stroke-linecap:round;stroke-linejoin:round;stroke-miterlimit:10;" x1="133.279" y1="303.252" x2="161.006" y2="303.252"/>
			
				<line style="fill:none;stroke:#263238;stroke-linecap:round;stroke-linejoin:round;stroke-miterlimit:10;" x1="185.904" y1="303.252" x2="213.63" y2="303.252"/>
		</g>
		<g>
			
				<rect x="117.435" y="314.569" style="fill:none;stroke:#263238;stroke-linecap:round;stroke-linejoin:round;stroke-miterlimit:10;" width="11.317" height="11.883"/>
			
				<rect x="170.06" y="314.569" style="fill:none;stroke:#263238;stroke-linecap:round;stroke-linejoin:round;stroke-miterlimit:10;" width="11.317" height="11.883"/>
			
				<line style="fill:none;stroke:#263238;stroke-linecap:round;stroke-linejoin:round;stroke-miterlimit:10;" x1="133.279" y1="326.452" x2="161.006" y2="326.452"/>
			
				<line style="fill:none;stroke:#263238;stroke-linecap:round;stroke-linejoin:round;stroke-miterlimit:10;" x1="185.904" y1="326.452" x2="213.63" y2="326.452"/>
		</g>
	</g>
</g>
<g id="Money">
	<g>
		<g>
			
				<rect x="252.353" y="100.733" style="fill:#C6FF00;stroke:#263238;stroke-linecap:round;stroke-linejoin:round;stroke-miterlimit:10;" width="104.495" height="196.262"/>
			<path style="fill:#FFFFFF;stroke:#263238;stroke-linecap:round;stroke-linejoin:round;stroke-miterlimit:10;" d="M346.13,124.177
				c-5.549,0-10.048-4.498-10.048-10.048h-63.634c0,5.549-4.499,10.048-10.048,10.048v148.704c5.549,0,10.048,4.499,10.048,10.048
				c0,0.226-0.019,0.448-0.034,0.67h63.702c-0.015-0.222-0.034-0.444-0.034-0.67c0-5.549,4.498-10.048,10.048-10.048
				c0.226,0,0.448,0.019,0.67,0.034V124.144C346.578,124.158,346.356,124.177,346.13,124.177z M304.6,229.342
				c-16.832,0-30.478-13.645-30.478-30.478s13.645-30.478,30.478-30.478c16.832,0,30.478,13.645,30.478,30.478
				S321.433,229.342,304.6,229.342z"/>
		</g>
		<g>
			
				<rect x="266.568" y="109.789" transform="matrix(0.988 0.1543 -0.1543 0.988 35.8925 -46.6946)" style="fill:#C6FF00;stroke:#263238;stroke-linecap:round;stroke-linejoin:round;stroke-miterlimit:10;" width="104.495" height="196.262"/>
			<path style="fill:#FFFFFF;stroke:#263238;stroke-linecap:round;stroke-linejoin:round;stroke-miterlimit:10;" d="M371.37,140.534
				c-5.483-0.856-9.233-5.995-8.377-11.477l-62.873-9.817c-0.856,5.483-5.995,9.233-11.477,8.377l-22.941,146.924
				c5.483,0.856,9.233,5.995,8.377,11.477c-0.035,0.224-0.088,0.439-0.137,0.657l62.939,9.827c0.02-0.222,0.035-0.444,0.07-0.667
				c0.856-5.483,5.995-9.233,11.477-8.377c0.223,0.035,0.439,0.088,0.657,0.137l22.951-146.99
				C371.815,140.584,371.594,140.569,371.37,140.534z M314.114,238.033c-16.631-2.597-28.008-18.184-25.411-34.814
				c2.597-16.631,18.184-28.008,34.815-25.411c16.631,2.597,28.008,18.184,25.411,34.814
				C346.331,229.253,330.745,240.63,314.114,238.033z"/>
		</g>
		<g>
			
				<rect x="284.17" y="126.383" transform="matrix(0.9296 0.3685 -0.3685 0.9296 106.4175 -108.1768)" style="fill:#C6FF00;stroke:#263238;stroke-linecap:round;stroke-linejoin:round;stroke-miterlimit:10;" width="104.495" height="196.262"/>
			<path style="fill:#FFFFFF;stroke:#263238;stroke-linecap:round;stroke-linejoin:round;stroke-miterlimit:10;" d="
				M402.548,170.389c-5.159-2.045-7.683-7.885-5.638-13.043l-59.156-23.451c-2.045,5.159-7.885,7.683-13.043,5.638L269.91,277.77
				c5.159,2.045,7.683,7.885,5.638,13.043c-0.083,0.21-0.183,0.409-0.278,0.61l59.219,23.476c0.068-0.212,0.132-0.425,0.215-0.635
				c2.045-5.159,7.885-7.683,13.043-5.638c0.21,0.083,0.409,0.183,0.61,0.278l54.826-138.301
				C402.971,170.536,402.758,170.472,402.548,170.389z M325.185,252.846c-15.647-6.203-23.304-23.917-17.101-39.564
				c6.203-15.648,23.917-23.304,39.564-17.101c15.648,6.203,23.304,23.917,17.101,39.564
				C358.546,251.393,340.833,259.05,325.185,252.846z"/>
		</g>
		<g>
			
				<rect x="298.571" y="148.208" transform="matrix(0.815 0.5795 -0.5795 0.815 207.6418 -157.7118)" style="fill:#C6FF00;stroke:#263238;stroke-linecap:round;stroke-linejoin:round;stroke-miterlimit:10;" width="104.495" height="196.262"/>
			<path style="fill:#FFFFFF;stroke:#263238;stroke-linecap:round;stroke-linejoin:round;stroke-miterlimit:10;" d="
				M427.943,209.533c-4.523-3.215-5.582-9.488-2.367-14.011l-51.862-36.873c-3.216,4.523-9.488,5.582-14.011,2.367L273.536,282.21
				c4.523,3.216,5.582,9.488,2.367,14.011c-0.131,0.184-0.275,0.354-0.416,0.526l51.918,36.912c0.117-0.19,0.23-0.381,0.361-0.565
				c3.215-4.522,9.488-5.582,14.011-2.367c0.184,0.131,0.354,0.275,0.526,0.416l86.206-121.249
				C428.319,209.777,428.128,209.665,427.943,209.533z M333.158,271.178c-13.718-9.754-16.932-28.781-7.179-42.5
				c9.754-13.718,28.781-16.933,42.5-7.179c13.718,9.754,16.933,28.781,7.179,42.5C365.905,277.718,346.877,280.932,333.158,271.178
				z"/>
		</g>
	</g>
	<g>
		<g>
			
				<circle style="fill:#FFFFFF;stroke:#263238;stroke-linecap:round;stroke-linejoin:round;stroke-miterlimit:10;" cx="276.823" cy="243.365" r="64.976"/>
			
				<line style="fill:none;stroke:#263238;stroke-linecap:round;stroke-linejoin:round;stroke-miterlimit:10;" x1="224.968" y1="204.836" x2="231.961" y2="204.836"/>
			
				<line style="fill:none;stroke:#263238;stroke-linecap:round;stroke-linejoin:round;stroke-miterlimit:10;" x1="228.253" y1="200.589" x2="234.792" y2="200.589"/>
			
				<line style="fill:none;stroke:#263238;stroke-linecap:round;stroke-linejoin:round;stroke-miterlimit:10;" x1="231.374" y1="197.286" x2="237.86" y2="197.286"/>
			
				<line style="fill:none;stroke:#263238;stroke-linecap:round;stroke-linejoin:round;stroke-miterlimit:10;" x1="235.386" y1="193.786" x2="241.11" y2="193.786"/>
			
				<line style="fill:none;stroke:#263238;stroke-linecap:round;stroke-linejoin:round;stroke-miterlimit:10;" x1="220.711" y1="211.207" x2="227.242" y2="211.207"/>
			
				<line style="fill:none;stroke:#263238;stroke-linecap:round;stroke-linejoin:round;stroke-miterlimit:10;" x1="215.964" y1="221.353" x2="222.523" y2="221.353"/>
			
				<line style="fill:none;stroke:#263238;stroke-linecap:round;stroke-linejoin:round;stroke-miterlimit:10;" x1="212.699" y1="233.623" x2="219.691" y2="233.623"/>
			
				<line style="fill:none;stroke:#263238;stroke-linecap:round;stroke-linejoin:round;stroke-miterlimit:10;" x1="212.227" y1="247.308" x2="219.219" y2="247.308"/>
			
				<circle style="fill:#FFFFFF;stroke:#263238;stroke-linecap:round;stroke-linejoin:round;stroke-miterlimit:10;" cx="282.96" cy="243.365" r="64.976"/>
			
				<ellipse transform="matrix(0.2248 -0.9744 0.9744 0.2248 -17.7781 464.3846)" style="fill:#FFFFFF;stroke:#263238;stroke-linecap:round;stroke-linejoin:round;stroke-miterlimit:10;" cx="282.96" cy="243.365" rx="51.747" ry="51.747"/>
		</g>
		<path style="fill:#FFFFFF;stroke:#263238;stroke-linecap:round;stroke-linejoin:round;stroke-miterlimit:10;" d="M282.96,191.618
			c-0.345,0-0.685,0.019-1.028,0.026c28.103,0.55,50.719,23.487,50.719,51.721s-22.616,51.171-50.719,51.721
			c0.343,0.007,0.683,0.026,1.028,0.026c28.579,0,51.747-23.168,51.747-51.747C334.706,214.786,311.539,191.618,282.96,191.618z"/>
		<g>
			<path style="fill:#FFFFFF;stroke:#263238;stroke-linecap:round;stroke-linejoin:round;stroke-miterlimit:10;" d="
				M285.384,275.643c-0.372,0.094-0.558,0.373-0.558,0.651l0.093,4.188c0,1.116-0.559,1.582-1.582,1.582h-5.489
				c-1.023,0-1.582-0.466-1.582-1.582l0.185-4.28c0-0.279-0.185-0.559-0.558-0.651c-10.607-1.303-16.749-7.723-16.749-16.655v-4.001
				c0-1.023,0.559-1.582,1.582-1.582h9.677c1.023,0,1.582,0.465,1.582,1.21v1.303c0,4.745,3.07,8.839,9.397,8.839
				c5.955,0,8.468-3.629,8.468-7.351c0-6.606-12.097-7.63-21.029-13.398c-5.769-3.536-9.77-8.096-9.77-16.005
				c0-9.77,6.048-16.655,16.748-18.237c0.373-0.093,0.559-0.372,0.559-0.651l-0.186-5.024c0-1.117,0.558-1.582,1.581-1.582h5.304
				c1.023,0,1.582,0.559,1.582,1.582l-0.093,4.932c0,0.279,0.186,0.558,0.559,0.651c11.165,1.21,17.492,8.002,17.492,17.586v3.07
				c0,1.023-0.558,1.582-1.581,1.582h-9.77c-1.024,0-1.582-0.372-1.582-0.931v-0.93c0-4.932-2.791-9.398-9.305-9.398
				c-5.211,0-8.374,2.698-8.374,6.885c0,6.048,8.467,6.979,17.214,10.793c9.584,4.28,13.771,10.235,13.771,18.424
				C302.971,266.897,296.736,274.155,285.384,275.643z"/>
		</g>
		<g>
			<path style="fill:#263238;" d="M287.368,275.643c-0.372,0.094-0.558,0.373-0.558,0.651l0.093,4.188
				c0,1.116-0.559,1.582-1.582,1.582h-5.489c-1.023,0-1.582-0.466-1.582-1.582l0.186-4.28c0-0.279-0.186-0.559-0.558-0.651
				c-10.607-1.303-16.749-7.723-16.749-16.655v-4.001c0-1.023,0.559-1.582,1.582-1.582h9.677c1.023,0,1.582,0.465,1.582,1.21v1.303
				c0,4.745,3.07,8.839,9.397,8.839c5.955,0,8.468-3.629,8.468-7.351c0-6.606-12.097-7.63-21.029-13.398
				c-5.768-3.536-9.77-8.096-9.77-16.005c0-9.77,6.048-16.655,16.748-18.237c0.373-0.093,0.559-0.372,0.559-0.651l-0.186-5.024
				c0-1.117,0.558-1.582,1.581-1.582h5.304c1.023,0,1.582,0.559,1.582,1.582l-0.093,4.932c0,0.279,0.186,0.558,0.559,0.651
				c11.165,1.21,17.492,8.002,17.492,17.586v3.07c0,1.023-0.558,1.582-1.581,1.582h-9.771c-1.023,0-1.582-0.372-1.582-0.931v-0.93
				c0-4.932-2.791-9.398-9.305-9.398c-5.211,0-8.374,2.698-8.374,6.885c0,6.048,8.467,6.979,17.214,10.793
				c9.584,4.28,13.771,10.235,13.771,18.424C304.955,266.897,298.721,274.155,287.368,275.643z"/>
		</g>
	</g>
</g>
<g id="House">
	<g>
		<polygon style="fill:#999999;stroke:#263238;stroke-linecap:round;stroke-linejoin:round;stroke-miterlimit:10;" points="
			120.08,445.727 58.568,445.727 58.568,378.938 87.465,349.044 120.08,378.938 		"/>
		<polygon style="fill:#999999;stroke:#263238;stroke-linecap:round;stroke-linejoin:round;stroke-miterlimit:10;" points="
			321.813,445.727 174.407,445.727 174.407,302.937 259.478,267.42 321.813,302.937 		"/>
		
			<rect x="117.347" y="366.349" style="fill:#FFFFFF;stroke:#263238;stroke-linecap:round;stroke-linejoin:round;stroke-miterlimit:10;" width="76.73" height="79.466"/>
		
			<rect x="240.498" y="378.938" style="fill:#C2C2C2;stroke:#263238;stroke-linecap:round;stroke-linejoin:round;stroke-miterlimit:10;" width="42.148" height="66.878"/>
		
			<rect x="249.939" y="388.379" style="fill:#FFFFFF;stroke:#263238;stroke-linecap:round;stroke-linejoin:round;stroke-miterlimit:10;" width="19.336" height="57.436"/>
		
			<rect x="252.986" y="388.379" style="fill:#263238;stroke:#263238;stroke-linecap:round;stroke-linejoin:round;stroke-miterlimit:10;" width="13.243" height="57.436"/>
		
			<rect x="229.988" y="439.725" style="fill:#FFFFFF;stroke:#263238;stroke-linecap:round;stroke-linejoin:round;stroke-miterlimit:10;" width="36.24" height="3.69"/>
		
			<rect x="249.939" y="388.379" style="fill:#FFFFFF;stroke:#263238;stroke-linecap:round;stroke-linejoin:round;stroke-miterlimit:10;" width="19.336" height="4.721"/>
		
			<rect x="74.526" y="388.379" style="fill:#FFFFFF;stroke:#263238;stroke-linecap:round;stroke-linejoin:round;stroke-miterlimit:10;" width="31.019" height="57.436"/>
		
			<rect x="79.413" y="388.379" style="fill:#263238;stroke:#263238;stroke-linecap:round;stroke-linejoin:round;stroke-miterlimit:10;" width="21.245" height="57.436"/>
		
			<rect x="74.526" y="388.379" style="fill:#FFFFFF;stroke:#263238;stroke-linecap:round;stroke-linejoin:round;stroke-miterlimit:10;" width="31.019" height="4.721"/>
		
			<rect x="190.93" y="377.593" style="fill:#C2C2C2;stroke:#263238;stroke-linecap:round;stroke-linejoin:round;stroke-miterlimit:10;" width="24.655" height="44.618"/>
		<polygon style="fill:#FFFFFF;stroke:#263238;stroke-linecap:round;stroke-linejoin:round;stroke-miterlimit:10;" points="
			399.43,445.727 293.483,445.727 293.483,302.937 345.834,267.42 399.43,302.937 		"/>
		<polygon style="fill:#FFFFFF;stroke:#263238;stroke-linecap:round;stroke-linejoin:round;stroke-miterlimit:10;" points="
			400.758,303.406 345.732,267.709 293.039,303.722 293.039,307.197 346.109,271.185 400.758,306.893 		"/>
		<polygon style="fill:#263238;stroke:#263238;stroke-linecap:round;stroke-linejoin:round;stroke-miterlimit:10;" points="
			332.301,276.602 287.33,348.515 293.483,349.301 340.29,272.57 399.43,359.818 402.578,359.691 343.578,268.951 		"/>
		<polygon style="fill:#263238;stroke:#263238;stroke-linecap:round;stroke-linejoin:round;stroke-miterlimit:10;" points="
			293.483,302.937 168.113,302.937 217.667,267.42 345.732,268.145 		"/>
		
			<rect x="312.018" y="364.547" style="fill:#BABABA;stroke:#263238;stroke-linecap:round;stroke-linejoin:round;stroke-miterlimit:10;" width="59.435" height="81.18"/>
		
			<rect x="316.739" y="364.547" style="fill:#FFFFFF;stroke:#263238;stroke-linecap:round;stroke-linejoin:round;stroke-miterlimit:10;" width="59.435" height="81.18"/>
		
			<rect x="325.76" y="376.869" style="fill:#FFFFFF;stroke:#263238;stroke-width:2;stroke-linecap:round;stroke-linejoin:round;stroke-miterlimit:10;" width="41.393" height="42.765"/>
		
			<rect x="337.759" y="376.869" style="fill:#FFFFFF;stroke:#263238;stroke-width:2;stroke-linecap:round;stroke-linejoin:round;stroke-miterlimit:10;" width="17.396" height="42.765"/>
		
			<rect x="305.503" y="360.922" style="fill:#BABABA;stroke:#263238;stroke-linecap:round;stroke-linejoin:round;stroke-miterlimit:10;" width="72.482" height="7.248"/>
		
			<rect x="310.216" y="360.922" style="fill:#FFFFFF;stroke:#263238;stroke-linecap:round;stroke-linejoin:round;stroke-miterlimit:10;" width="72.482" height="7.248"/>
		<g>
			
				<rect x="267.513" y="377.593" style="fill:#FFFFFF;stroke:#263238;stroke-linecap:round;stroke-linejoin:round;stroke-miterlimit:10;" width="3.677" height="39.14"/>
			
				<rect x="277.761" y="377.593" style="fill:#FFFFFF;stroke:#263238;stroke-linecap:round;stroke-linejoin:round;stroke-miterlimit:10;" width="3.677" height="39.14"/>
			
				<rect x="266.229" y="416.185" style="fill:#FFFFFF;stroke:#263238;stroke-linecap:round;stroke-linejoin:round;stroke-miterlimit:10;" width="6.093" height="4.387"/>
			
				<rect x="276.553" y="416.185" style="fill:#FFFFFF;stroke:#263238;stroke-linecap:round;stroke-linejoin:round;stroke-miterlimit:10;" width="6.093" height="4.387"/>
			
				<rect x="266.229" y="381.504" style="fill:#FFFFFF;stroke:#263238;stroke-linecap:round;stroke-linejoin:round;stroke-miterlimit:10;" width="6.093" height="2.467"/>
			
				<rect x="276.553" y="381.504" style="fill:#FFFFFF;stroke:#263238;stroke-linecap:round;stroke-linejoin:round;stroke-miterlimit:10;" width="6.093" height="2.467"/>
			
				<rect x="263.315" y="420.206" style="fill:#FFFFFF;stroke:#263238;stroke-linecap:round;stroke-linejoin:round;stroke-miterlimit:10;" width="21.532" height="25.521"/>
		</g>
		<g>
			
				<rect x="215.584" y="377.593" style="fill:#FFFFFF;stroke:#263238;stroke-linecap:round;stroke-linejoin:round;stroke-miterlimit:10;" width="3.677" height="39.14"/>
			
				<rect x="225.832" y="377.593" style="fill:#FFFFFF;stroke:#263238;stroke-linecap:round;stroke-linejoin:round;stroke-miterlimit:10;" width="3.677" height="39.14"/>
			
				<rect x="214.3" y="416.185" style="fill:#FFFFFF;stroke:#263238;stroke-linecap:round;stroke-linejoin:round;stroke-miterlimit:10;" width="6.093" height="4.387"/>
			
				<rect x="224.624" y="416.185" style="fill:#FFFFFF;stroke:#263238;stroke-linecap:round;stroke-linejoin:round;stroke-miterlimit:10;" width="6.093" height="4.387"/>
			
				<rect x="214.3" y="381.504" style="fill:#FFFFFF;stroke:#263238;stroke-linecap:round;stroke-linejoin:round;stroke-miterlimit:10;" width="6.093" height="2.467"/>
			
				<rect x="224.624" y="381.504" style="fill:#FFFFFF;stroke:#263238;stroke-linecap:round;stroke-linejoin:round;stroke-miterlimit:10;" width="6.093" height="2.467"/>
			
				<rect x="211.386" y="420.206" style="fill:#FFFFFF;stroke:#263238;stroke-linecap:round;stroke-linejoin:round;stroke-miterlimit:10;" width="21.532" height="25.521"/>
			
				<rect x="185.671" y="420.206" style="fill:#999999;stroke:#263238;stroke-linecap:round;stroke-linejoin:round;stroke-miterlimit:10;" width="26.253" height="25.521"/>
		</g>
		<polygon style="fill:#FFFFFF;stroke:#263238;stroke-linecap:round;stroke-linejoin:round;stroke-miterlimit:10;" points="
			284.847,381.217 203.667,381.217 217.438,373.969 284.847,373.969 		"/>
		
			<line style="fill:none;stroke:#263238;stroke-linecap:round;stroke-linejoin:round;stroke-miterlimit:10;" x1="326.162" y1="387.741" x2="366.752" y2="387.741"/>
		
			<line style="fill:none;stroke:#263238;stroke-linecap:round;stroke-linejoin:round;stroke-miterlimit:10;" x1="326.162" y1="397.888" x2="366.752" y2="397.888"/>
		
			<line style="fill:none;stroke:#263238;stroke-linecap:round;stroke-linejoin:round;stroke-miterlimit:10;" x1="326.162" y1="408.036" x2="366.752" y2="408.036"/>
		<polygon style="fill:#263238;stroke:#263238;stroke-linecap:round;stroke-linejoin:round;stroke-miterlimit:10;" points="
			83.879,347.659 54.456,379.567 56.918,379.567 85.815,349.044 		"/>
		<polygon style="fill:#263238;stroke:#263238;stroke-linecap:round;stroke-linejoin:round;stroke-miterlimit:10;" points="
			114.987,378.151 195.65,378.151 256.085,347.659 83.879,347.659 		"/>
		<polygon style="fill:#263238;stroke:#263238;stroke-linecap:round;stroke-linejoin:round;stroke-miterlimit:10;" points="
			298.074,347.659 251.364,347.659 168.113,378.151 209.813,378.151 		"/>
		<g>
			<path style="fill:#FFFFFF;stroke:#263238;stroke-linecap:round;stroke-linejoin:round;stroke-miterlimit:10;" d="
				M402.578,351.045l-54.868-84.188c-0.443-0.679-1.162-1.071-2.013-1.072c-0.81,0.012-1.557,0.439-1.98,1.131l-49.366,81.545
				l-95.553,30.736v4.931l97.78-31.408c0.556-0.167,1.031-0.535,1.334-1.03l47.887-79.12l56.78,87.122V351.045z"/>
		</g>
		<g>
			
				<rect x="262.136" y="308.252" style="fill:none;stroke:#263238;stroke-width:2;stroke-linecap:round;stroke-linejoin:round;stroke-miterlimit:10;" width="16.671" height="27.543"/>
			
				<line style="fill:none;stroke:#263238;stroke-linecap:round;stroke-linejoin:round;stroke-miterlimit:10;" x1="270.471" y1="308.977" x2="270.471" y2="335.07"/>
			
				<line style="fill:none;stroke:#263238;stroke-linecap:round;stroke-linejoin:round;stroke-miterlimit:10;" x1="278.444" y1="322.024" x2="262.498" y2="322.024"/>
		</g>
		<g>
			
				<rect x="144.828" y="388.77" style="fill:none;stroke:#263238;stroke-width:2;stroke-linecap:round;stroke-linejoin:round;stroke-miterlimit:10;" width="16.671" height="27.543"/>
			
				<line style="fill:none;stroke:#263238;stroke-linecap:round;stroke-linejoin:round;stroke-miterlimit:10;" x1="153.163" y1="389.495" x2="153.163" y2="415.588"/>
			
				<line style="fill:none;stroke:#263238;stroke-linecap:round;stroke-linejoin:round;stroke-miterlimit:10;" x1="161.136" y1="402.542" x2="145.19" y2="402.542"/>
		</g>
		<g>
			
				<rect x="336.806" y="307.73" style="fill:none;stroke:#263238;stroke-width:2;stroke-linecap:round;stroke-linejoin:round;stroke-miterlimit:10;" width="16.671" height="27.543"/>
			
				<line style="fill:none;stroke:#263238;stroke-linecap:round;stroke-linejoin:round;stroke-miterlimit:10;" x1="345.142" y1="308.455" x2="345.142" y2="334.548"/>
			
				<line style="fill:none;stroke:#263238;stroke-linecap:round;stroke-linejoin:round;stroke-miterlimit:10;" x1="353.115" y1="321.501" x2="337.168" y2="321.501"/>
		</g>
		<g>
			
				<rect x="226.498" y="308.252" style="fill:none;stroke:#263238;stroke-width:2;stroke-linecap:round;stroke-linejoin:round;stroke-miterlimit:10;" width="16.671" height="27.543"/>
			
				<line style="fill:none;stroke:#263238;stroke-linecap:round;stroke-linejoin:round;stroke-miterlimit:10;" x1="234.834" y1="308.977" x2="234.834" y2="335.07"/>
			
				<line style="fill:none;stroke:#263238;stroke-linecap:round;stroke-linejoin:round;stroke-miterlimit:10;" x1="242.807" y1="322.024" x2="226.861" y2="322.024"/>
		</g>
		<g>
			
				<rect x="190.861" y="308.252" style="fill:none;stroke:#263238;stroke-width:2;stroke-linecap:round;stroke-linejoin:round;stroke-miterlimit:10;" width="16.671" height="27.543"/>
			
				<line style="fill:none;stroke:#263238;stroke-linecap:round;stroke-linejoin:round;stroke-miterlimit:10;" x1="199.197" y1="308.977" x2="199.197" y2="335.07"/>
			
				<line style="fill:none;stroke:#263238;stroke-linecap:round;stroke-linejoin:round;stroke-miterlimit:10;" x1="207.17" y1="322.024" x2="191.224" y2="322.024"/>
		</g>
		<polygon style="fill:#6E6E6E;" points="133.494,367.136 124.052,367.136 113.037,356.121 122.478,356.121 		"/>
		<polygon style="fill:#6E6E6E;" points="162.605,367.136 153.163,367.136 142.148,356.121 151.59,356.121 		"/>
		<g>
			
				<rect x="80.485" y="397.034" style="fill:#B5B5B5;stroke:#263238;stroke-linecap:round;stroke-linejoin:round;stroke-miterlimit:10;" width="3.425" height="11.015"/>
			
				<rect x="84.289" y="397.034" style="fill:#B5B5B5;stroke:#263238;stroke-linecap:round;stroke-linejoin:round;stroke-miterlimit:10;" width="3.425" height="11.015"/>
			
				<rect x="88.092" y="397.034" style="fill:#B5B5B5;stroke:#263238;stroke-linecap:round;stroke-linejoin:round;stroke-miterlimit:10;" width="3.425" height="11.015"/>
			
				<rect x="91.896" y="397.034" style="fill:#B5B5B5;stroke:#263238;stroke-linecap:round;stroke-linejoin:round;stroke-miterlimit:10;" width="3.425" height="11.015"/>
			
				<rect x="95.7" y="397.034" style="fill:#B5B5B5;stroke:#263238;stroke-linecap:round;stroke-linejoin:round;stroke-miterlimit:10;" width="3.425" height="11.015"/>
		</g>
		
			<rect x="114.198" y="378.58" style="fill:#FFFFFF;stroke:#263238;stroke-linecap:round;stroke-linejoin:round;stroke-miterlimit:10;" width="84.6" height="5.548"/>
		
			<rect x="167.049" y="378.58" style="fill:#BABABA;stroke:#263238;stroke-linecap:round;stroke-linejoin:round;stroke-miterlimit:10;" width="31.749" height="5.548"/>
		<polygon style="fill:#BABABA;stroke:#263238;stroke-linecap:round;stroke-linejoin:round;stroke-miterlimit:10;" points="
			114.198,378.58 83.879,347.659 54.456,379.567 58.568,379.567 83.986,352.474 114.198,384.128 		"/>
		
			<rect x="229.988" y="442.365" style="fill:#FFFFFF;stroke:#263238;stroke-linecap:round;stroke-linejoin:round;stroke-miterlimit:10;" width="36.24" height="3.45"/>
		
			<rect x="167.629" y="303.722" style="fill:#BABABA;stroke:#263238;stroke-linecap:round;stroke-linejoin:round;stroke-miterlimit:10;" width="125.41" height="3.475"/>
	</g>
</g>
<g id="Car">
	<g>
		<path style="fill:#263238;stroke:#263238;stroke-linecap:round;stroke-linejoin:round;stroke-miterlimit:10;" d="M153.818,416.943
			h-4.169c-1.302,0-2.357-1.055-2.357-2.357v-0.838c0-1.302,1.055-2.357,2.357-2.357h4.169c1.302,0,2.357,1.055,2.357,2.357v0.838
			C156.175,415.887,155.12,416.943,153.818,416.943z"/>
		<path style="fill:#C6FF00;stroke:#263238;stroke-linecap:round;stroke-linejoin:round;stroke-miterlimit:10;" d="M177.925,397.694
			h36.366l18.508,13.696l31.834,5.552V433.6H122.12l-10.735-4.812v-6.293l44.42-9.254l18.959-14.478
			C175.673,398.069,176.783,397.694,177.925,397.694z"/>
		<path style="fill:#FFFFFF;stroke:#263238;stroke-linecap:round;stroke-linejoin:round;stroke-miterlimit:10;" d="M184.308,413.241
			h-28.873l18.96-14.478c0.908-0.693,2.018-1.069,3.16-1.069h27.112L184.308,413.241z"/>
		<g>
			
				<ellipse transform="matrix(0.7071 -0.7071 0.7071 0.7071 -258.9783 244.932)" style="fill:#FFFFFF;stroke:#263238;stroke-linecap:round;stroke-linejoin:round;stroke-miterlimit:10;" cx="166.17" cy="435.08" rx="10.735" ry="10.735"/>
			
				<ellipse transform="matrix(0.9249 -0.3802 0.3802 0.9249 -152.6854 97.1139)" style="fill:#263238;stroke:#263238;stroke-linecap:round;stroke-linejoin:round;stroke-miterlimit:10;" cx="169.501" cy="435.08" rx="10.735" ry="10.735"/>
			<path style="fill:#FFFFFF;stroke:#263238;stroke-linecap:round;stroke-linejoin:round;stroke-miterlimit:10;" d="
				M175.054,435.081c0,3.066-2.486,5.552-5.553,5.552c-3.066,0-5.552-2.486-5.552-5.552c0-3.067,2.486-5.552,5.552-5.552
				C172.568,429.528,175.054,432.014,175.054,435.081z"/>
		</g>
		<path style="fill:#263238;stroke:#263238;stroke-linecap:round;stroke-linejoin:round;stroke-miterlimit:10;" d="M141.739,424.346
			c-0.568,0-1.122,0.057-1.666,0.142c-0.544-0.085-1.098-0.142-1.666-0.142c-5.929,0-10.735,4.806-10.735,10.735
			c0,5.929,4.806,10.735,10.735,10.735c0.568,0,1.121-0.057,1.666-0.142c0.544,0.085,1.098,0.142,1.666,0.142
			c5.929,0,10.735-4.806,10.735-10.735C152.474,429.152,147.668,424.346,141.739,424.346z"/>
		<path style="fill:#263238;stroke:#263238;stroke-linecap:round;stroke-linejoin:round;stroke-miterlimit:10;" d="M223.545,424.346
			c-0.568,0-1.122,0.057-1.666,0.142c-0.544-0.085-1.098-0.142-1.666-0.142c-5.929,0-10.735,4.806-10.735,10.735
			c0,5.929,4.806,10.735,10.735,10.735c0.568,0,1.122-0.057,1.666-0.142c0.544,0.085,1.098,0.142,1.666,0.142
			c5.929,0,10.735-4.806,10.735-10.735C234.28,429.152,229.474,424.346,223.545,424.346z"/>
		<g>
			
				<ellipse transform="matrix(0.2308 -0.973 0.973 0.2308 -234.0164 574.1371)" style="fill:#FFFFFF;stroke:#263238;stroke-linecap:round;stroke-linejoin:round;stroke-miterlimit:10;" cx="246.125" cy="435.08" rx="10.735" ry="10.735"/>
			
				<ellipse transform="matrix(0.9249 -0.3802 0.3802 0.9249 -146.6814 127.5121)" style="fill:#263238;stroke:#263238;stroke-linecap:round;stroke-linejoin:round;stroke-miterlimit:10;" cx="249.457" cy="435.08" rx="10.735" ry="10.735"/>
			<path style="fill:#FFFFFF;stroke:#263238;stroke-linecap:round;stroke-linejoin:round;stroke-miterlimit:10;" d="
				M255.009,435.081c0,3.066-2.486,5.552-5.553,5.552s-5.552-2.486-5.552-5.552c0-3.067,2.486-5.552,5.552-5.552
				S255.009,432.014,255.009,435.081z"/>
		</g>
		<path style="fill:#C6FF00;stroke:#263238;stroke-linecap:round;stroke-linejoin:round;stroke-miterlimit:10;" d="M261.302,411.39
			l-16.385-12.125c-1.379-1.02-3.049-1.571-4.764-1.571h-35.486l-20.359,15.547l-44.42,9.254v6.293l10.735,4.812h7.211
			c-0.115-0.538-0.178-1.094-0.178-1.666v-0.37c0-4.395,3.563-7.958,7.959-7.958h8.144c4.395,0,7.958,3.563,7.958,7.958v0.37
			c0,0.572-0.063,1.128-0.178,5.737h56.065c-0.115-4.609-0.178-5.166-0.178-5.737v-0.37c0-4.395,3.563-7.958,7.959-7.958h8.144
			c4.395,0,7.959,3.563,7.959,7.958v0.37c0,0.572-0.063,1.128-0.178,1.666h11.838v-12.362c0-2.621-1.516-5.005-3.889-6.118
			L261.302,411.39z"/>
		<polygon style="fill:#FFFFFF;stroke:#263238;stroke-linecap:round;stroke-linejoin:round;stroke-miterlimit:10;" points="
			222.064,400.285 205.531,400.285 188.565,413.241 222.064,413.241 		"/>
		<path style="fill:#FFFFFF;stroke:#263238;stroke-linecap:round;stroke-linejoin:round;stroke-miterlimit:10;" d="M224.841,400.285
			h13.455c1.757,0,3.465,0.578,4.861,1.644l14.813,11.312h-33.13V400.285z"/>
		
			<rect x="111.386" y="422.495" style="fill:#FFFFFF;stroke:#263238;stroke-linecap:round;stroke-linejoin:round;stroke-miterlimit:10;" width="28.503" height="6.293"/>
		
			<rect x="266.114" y="429.898" style="fill:#263238;stroke:#263238;stroke-linecap:round;stroke-linejoin:round;stroke-miterlimit:10;" width="9.254" height="5.182"/>
		
			<rect x="110.275" y="428.788" style="fill:#263238;stroke:#263238;stroke-linecap:round;stroke-linejoin:round;stroke-miterlimit:10;" width="39.607" height="6.293"/>
		<path style="fill:#263238;stroke:#263238;stroke-linecap:round;stroke-linejoin:round;stroke-miterlimit:10;" d="M196.017,416.943
			h-4.169c-1.302,0-2.357-1.055-2.357-2.357v-0.838c0-1.302,1.055-2.357,2.357-2.357h4.169c1.302,0,2.357,1.055,2.357,2.357v0.838
			C198.374,415.887,197.319,416.943,196.017,416.943z"/>
		
			<rect x="131.745" y="422.865" style="fill:#FFFFFF;stroke:#263238;stroke-linecap:round;stroke-linejoin:round;stroke-miterlimit:10;" width="6.663" height="5.182"/>
		
			<rect x="112.496" y="422.865" style="fill:#FFFFFF;stroke:#263238;stroke-linecap:round;stroke-linejoin:round;stroke-miterlimit:10;" width="6.663" height="5.182"/>
		
			<line style="fill:none;stroke:#263238;stroke-linecap:round;stroke-linejoin:round;stroke-miterlimit:10;" x1="119.159" y1="424.716" x2="131.375" y2="424.716"/>
		
			<line style="fill:none;stroke:#263238;stroke-linecap:round;stroke-linejoin:round;stroke-miterlimit:10;" x1="119.159" y1="426.612" x2="131.375" y2="426.612"/>
		
			<line style="fill:none;stroke:#263238;stroke-width:2;stroke-linecap:round;stroke-linejoin:round;stroke-miterlimit:10;" x1="186.064" y1="431.373" x2="234.622" y2="431.373"/>
		<path style="fill:none;stroke:#263238;stroke-linecap:round;stroke-linejoin:round;stroke-miterlimit:10;" d="M223.176,398.943
			v35.898h-37.979v-4.267c0-2.534-0.74-5.013-2.128-7.133l-1.167-1.78l6.59-5.896"/>
		<path style="fill:none;stroke:#263238;stroke-linecap:round;stroke-linejoin:round;stroke-miterlimit:10;" d="M258.381,414.03
			v8.151h-14.367c-1.905,0-3.732,0.757-5.079,2.104l-0.821,0.822c-1.347,1.347-2.104,3.174-2.104,5.079v4.308h-10.752"/>
		
			<rect x="217.491" y="417.148" style="fill:#263238;stroke:#263238;stroke-linecap:round;stroke-linejoin:round;stroke-miterlimit:10;" width="4.509" height="2.577"/>
		
			<rect x="252.492" y="417.148" style="fill:#263238;stroke:#263238;stroke-linecap:round;stroke-linejoin:round;stroke-miterlimit:10;" width="4.509" height="2.577"/>
	</g>
</g>
<g id="Plants">
	<g>
		<path style="fill:#C6FF00;" d="M408.785,445.618c0,0-8.622-8.622-6.208-15.175c2.414-6.553,8.967,3.104,8.967,3.104
			s0.69-15.175,5.518-15.175s3.794,12.761,3.794,12.761s2.759-3.449,5.863-1.379c3.104,2.069,0.345,12.761,0.345,12.761
			s2.069-9.312,6.553-9.312c4.483,0,0.345,12.071,0.345,12.071"/>
		<path style="fill:none;stroke:#263238;stroke-linecap:round;stroke-linejoin:round;stroke-miterlimit:10;" d="M406.715,445.273
			c0,0-5.518-7.587-3.794-8.967c1.724-1.379,4.139,2.759,4.139,2.759s-1.725-10.002,3.794-10.347
			c5.518-0.345,3.449,12.071,3.449,12.071s2.759-7.588,5.518-5.518c2.759,2.069,1.724,8.277,1.724,8.277s0.345-5.173,3.794-5.173
			c3.449,0,5.518,4.139,5.518,4.139s3.104-5.173,5.518-3.449c2.414,1.725,0,6.553,0,6.553"/>
	</g>
	<g>
		<path style="fill:#C6FF00;" d="M299.52,445.618c0,0-6.109-6.109-4.398-10.752c1.711-4.643,6.353,2.199,6.353,2.199
			s0.489-10.752,3.91-10.752c3.421,0,2.688,9.041,2.688,9.041s1.955-2.444,4.154-0.977c2.199,1.466,0.244,9.041,0.244,9.041
			s1.466-6.598,4.643-6.598s0.244,8.552,0.244,8.552"/>
		<path style="fill:none;stroke:#263238;stroke-linecap:round;stroke-linejoin:round;stroke-miterlimit:10;" d="M298.054,445.374
			c0,0-3.91-5.376-2.688-6.353c1.222-0.977,2.932,1.955,2.932,1.955s-1.222-7.086,2.688-7.331c3.91-0.244,2.444,8.552,2.444,8.552
			s1.955-5.376,3.91-3.91c1.955,1.466,1.222,5.865,1.222,5.865s0.244-3.665,2.688-3.665c2.443,0,3.91,2.932,3.91,2.932
			s2.199-3.665,3.91-2.443c1.71,1.222,0,4.643,0,4.643"/>
	</g>
	<g>
		<path style="fill:#C6FF00;" d="M35.714,445.618c0,0-6.403-6.403-4.61-11.269c1.793-4.866,6.659,2.305,6.659,2.305
			s0.512-11.269,4.098-11.269c3.586,0,2.817,9.476,2.817,9.476s2.049-2.561,4.354-1.025c2.305,1.537,0.256,9.476,0.256,9.476
			s1.537-6.915,4.866-6.915c3.329,0,0.256,8.964,0.256,8.964"/>
		<path style="fill:none;stroke:#263238;stroke-linecap:round;stroke-linejoin:round;stroke-miterlimit:10;" d="M34.178,445.362
			c0,0-4.098-5.634-2.817-6.659c1.281-1.025,3.073,2.049,3.073,2.049s-1.281-7.427,2.817-7.683s2.561,8.964,2.561,8.964
			s2.049-5.634,4.098-4.098c2.049,1.537,1.281,6.147,1.281,6.147s0.256-3.842,2.817-3.842s4.098,3.073,4.098,3.073
			s2.305-3.842,4.098-2.561c1.793,1.281,0,4.866,0,4.866"/>
	</g>
</g>
<g id="Floor">
	
		<line style="fill:none;stroke:#263238;stroke-linecap:round;stroke-linejoin:round;stroke-miterlimit:10;" x1="29" y1="445.815" x2="440" y2="445.815"/>
</g>
</svg>
